<?xml version="1.0" encoding="UTF-8"?>
<svg width="14px" height="14px" viewBox="0 0 14 14" version="1.1" xmlns="http://www.w3.org/2000/svg" xmlns:xlink="http://www.w3.org/1999/xlink">
    <title>com_btn_ic_authentication</title>
    <g id="Page-1" stroke="none" stroke-width="1" fill="none" fill-rule="evenodd">
        <g id="用户列表_详情" transform="translate(-420.000000, -390.000000)" fill-rule="nonzero">
            <g id="2，3" transform="translate(280.000000, 384.000000)">
                <g id="详情" transform="translate(132.000000, 2.000000)">
                    <g id="分组-10" transform="translate(8.000000, 3.000000)">
                        <g id="com_btn_ic_authentication" transform="translate(0.000000, 1.000000)">
                            <rect id="矩形" fill="#D8D8D8" opacity="0" x="0" y="0" width="14" height="14"></rect>
                            <g id="盾牌(1)-(1)" transform="translate(2.000000, 1.000000)">
                                <path d="M5.37988255,0.808745011 C6.04411121,1.14196788 7.2744679,1.94238456 9.49700777,2.08999223 L9.49700777,2.08999223 L10.4998189,7.50348775 C10.4934375,8.28971732 10.3146115,9.2754141 9.35654626,10.2580707 C8.62353794,11.0098936 7.45883951,11.7508639 5.63775419,12.4187377 C3.57525955,11.7606959 2.41347834,11.0337411 1.6771638,10.2923277 C0.709549592,9.31801296 0.513762249,8.33882525 0.500824193,7.55959343 L0.500824193,7.55959343 L0.500070084,2.10159205 C3.4544333,2.09259026 4.9139242,1.17538284 5.37988255,0.808745011 Z" id="路径" stroke="#6ECC94"></path>
                                <path d="M2.15914559,7.00610023 L2.91630903,6.41562474 L4.43140419,7.49156942 C4.43140419,7.49156942 6.52349555,5.40845177 8.54336634,4.43640415 L8.83186443,4.74920456 C8.83186443,4.74920456 6.30721801,6.76281102 5.00878453,9.43640415 L2.15914559,7.00610023 Z" id="路径" fill="#6ECC94"></path>
                            </g>
                        </g>
                    </g>
                </g>
            </g>
        </g>
    </g>
</svg>