<?xml version="1.0" encoding="UTF-8"?>
<svg width="20px" height="20px" viewBox="0 0 20 20" version="1.1" xmlns="http://www.w3.org/2000/svg" xmlns:xlink="http://www.w3.org/1999/xlink">
    <title>home_card_ic_user</title>
    <defs>
        <linearGradient x1="50%" y1="0%" x2="50%" y2="100%" id="linearGradient-1">
            <stop stop-color="#178AFF" stop-opacity="0" offset="0%"></stop>
            <stop stop-color="#178AFF" offset="100%"></stop>
        </linearGradient>
    </defs>
    <g id="Page-1" stroke="none" stroke-width="1" fill="none" fill-rule="evenodd">
        <g id="首页" transform="translate(-280.000000, -223.000000)">
            <g id="1" transform="translate(280.000000, 220.000000)">
                <g id="home_card_ic_user" transform="translate(0.000000, 3.000000)">
                    <rect id="Rectangle-4" fill="#C84040" opacity="0" x="0" y="0" width="20" height="20"></rect>
                    <path d="M15,13 C16.6568542,13 18,14.3431458 18,16 L18,19 L2,19 L2,16 C2,14.3431458 3.34314575,13 5,13 L15,13 Z M15,15 L5,15 C4.48716416,15 4.06449284,15.3860402 4.00672773,15.8833789 L4,16 L4,17 L16,17 L16,16 C16,15.4871642 15.6139598,15.0644928 15.1166211,15.0067277 L15,15 Z M10.0205937,1.02824486 C13.0581598,1.02824486 15.5205937,3.49067873 15.5205937,6.52824486 C15.5205937,9.56581098 13.0581598,12.0282449 10.0205937,12.0282449 C6.98302755,12.0282449 4.52059367,9.56581098 4.52059367,6.52824486 C4.52059367,3.49067873 6.98302755,1.02824486 10.0205937,1.02824486 Z M10.0205937,3.02824486 C8.08759705,3.02824486 6.52059367,4.59524823 6.52059367,6.52824486 C6.52059367,8.46124148 8.08759705,10.0282449 10.0205937,10.0282449 C11.9535903,10.0282449 13.5205937,8.46124148 13.5205937,6.52824486 C13.5205937,4.59524823 11.9535903,3.02824486 10.0205937,3.02824486 Z" id="形状结合" fill="#178AFF"></path>
                    <circle id="椭圆形" fill="url(#linearGradient-1)" opacity="0.300000012" cx="10.0201868" cy="6.53296255" r="3.5"></circle>
                </g>
            </g>
        </g>
    </g>
</svg>