<?xml version="1.0" encoding="UTF-8"?>
<svg width="20px" height="20px" viewBox="0 0 20 20" version="1.1" xmlns="http://www.w3.org/2000/svg" xmlns:xlink="http://www.w3.org/1999/xlink">
    <title>user list_left_ic_setup</title>
    <g id="Page-1" stroke="none" stroke-width="1" fill="none" fill-rule="evenodd">
        <g id="用户列表" transform="translate(-20.000000, -1047.000000)">
            <g id="7" transform="translate(0.000000, 1022.000000)">
                <g id="user-list_left_ic_setup" transform="translate(20.000000, 25.000000)">
                    <rect id="Rectangle-4" fill="#C84040" opacity="0" x="0" y="0" width="20" height="20"></rect>
                    <path d="M3.32378779,5.34114573 C6.27206919,5.79966458 8.49747326,6.02892401 10,6.02892401 C11.5025267,6.02892401 13.7509064,5.79966458 16.7451389,5.34114573 L13,3.30099986 L10.0344633,1.0403035 L8.85279079,1.52996719 L5.80833705,4.07329586 L3.32378779,5.34114573 Z" id="路径-5" fill="#178AFF" opacity="0.200000003"></path>
                    <path d="M11.4918731,1 C11.6860162,1.81448833 12.112805,2.54009837 12.7026044,3.10883356 C13.5128306,3.89012311 14.6327174,4.375 15.875,4.375 C16.32113,4.375 16.767901,4.30073635 17.185817,4.17885924 L17.185817,4.17885924 L18.6889377,6.78954257 C18.3704925,7.08314555 18.0905179,7.42584722 17.8647292,7.80484966 C17.4777303,8.4544551 17.25,9.20856891 17.25,10 C17.25,11.2675602 17.7888687,12.3938324 18.6891802,13.2100361 L18.6891802,13.2100361 L17.185817,15.8211408 C16.767901,15.6992637 16.32113,15.625 15.875,15.625 C14.6327174,15.625 13.5128306,16.1098769 12.7026044,16.8911664 C12.112805,17.4599016 11.6860162,18.1855117 11.4918731,19 L11.4918731,19 L8.50812692,19 C8.31398382,18.1855117 7.88719501,17.4599016 7.29739555,16.8911664 C6.48716936,16.1098769 5.3672826,15.625 4.125,15.625 C3.67886995,15.625 3.23209898,15.6992637 2.81418303,15.8211408 L2.81418303,15.8211408 L1.31990843,13.2258217 C1.64094275,12.9370028 1.91664827,12.6007877 2.13789187,12.2294145 C2.52903277,11.5728566 2.75,10.8065624 2.75,10 C2.75,8.73243976 2.21113134,7.60616756 1.31081976,6.78996387 L1.31081976,6.78996387 L2.81418303,4.17885924 C3.23209898,4.30073635 3.67886995,4.375 4.125,4.375 C5.3672826,4.375 6.48716936,3.89012311 7.29739555,3.10883356 C7.88719501,2.54009837 8.31398382,1.81448833 8.50812692,1 L8.50812692,1 Z" id="路径" stroke="#1F2028" stroke-width="2" fill-rule="nonzero"></path>
                    <circle id="椭圆形" stroke="#178AFF" stroke-width="2" cx="10" cy="10" r="2"></circle>
                </g>
            </g>
        </g>
    </g>
</svg>