<?xml version="1.0" encoding="UTF-8"?>
<svg width="20px" height="20px" viewBox="0 0 20 20" version="1.1" xmlns="http://www.w3.org/2000/svg" xmlns:xlink="http://www.w3.org/1999/xlink">
    <title>user list_left_ic_user</title>
    <g id="Page-1" stroke="none" stroke-width="1" fill="none" fill-rule="evenodd">
        <g id="用户列表" transform="translate(-20.000000, -127.000000)">
            <g id="1" transform="translate(0.000000, 102.000000)">
                <g id="user-list_left_ic_user" transform="translate(20.000000, 25.000000)">
                    <rect id="Rectangle-4" fill="#C84040" opacity="0" x="0" y="0" width="20" height="20"></rect>
                    <path d="M11.7439108,4.99991345 C11.9097576,5.4691063 12,5.97401452 12,6.5 C12,8.98528137 9.98528137,11 7.5,11 C5.01471863,11 3,8.98528137 3,6.5 C3,5.97401452 3.09024243,5.4691063 3.25608915,4.99991345 C3.87413002,6.74802658 5.54085798,8 7.5,8 C9.41721706,8 11.0544013,6.80103683 11.7026635,5.1119996 Z" id="形状结合" fill="#178AFF" opacity="0.200000003"></path>
                    <path d="M7.5,1 C10.5375661,1 13,3.46243388 13,6.5 C13,9.53756612 10.5375661,12 7.5,12 C4.46243388,12 2,9.53756612 2,6.5 C2,3.46243388 4.46243388,1 7.5,1 Z M7.5,3 C5.56700338,3 4,4.56700338 4,6.5 C4,8.43299662 5.56700338,10 7.5,10 C9.43299662,10 11,8.43299662 11,6.5 C11,4.56700338 9.43299662,3 7.5,3 Z M15,19 L0,19 L0,16 C-2.02906125e-16,14.3431458 1.34314575,13 3,13 L12,13 C13.6568542,13 15,14.3431458 15,16 L15,19 Z M12,15 L3,15 C2.48716416,15 2.06449284,15.3860402 2.00672773,15.8833789 L2,16 L2,17 L13,17 L13,16 C13,15.4871642 12.6139598,15.0644928 12.1166211,15.0067277 L12,15 Z" id="形状结合" fill="#1F2028"></path>
                    <path d="M18.0004758,7.47256844 C18.0004758,8.40224777 17.7185534,9.26608058 17.2355369,9.9832385 C18.7823791,10.1013853 20.0004758,11.394726 20.0004758,12.9725684 L20.0004758,14.9725684 L18.0004758,14.9725684 L18.0004758,12.9725684 C18.0004758,12.4597326 17.6144356,12.0370613 17.1170969,11.9792962 L17.0004758,11.9725684 L14,11.972 L14,9.92265591 C15.1413572,9.69120464 16.0004758,8.68221549 16.0004758,7.47256844 C16.0004758,6.26292138 15.1413572,5.25393223 14,5.02248096 L14.0001788,3 C16.250297,3.24858708 18.0004758,5.15618968 18.0004758,7.47256844 Z" id="形状结合" fill="#178AFF"></path>
                </g>
            </g>
        </g>
    </g>
</svg>