<?xml version="1.0" encoding="UTF-8"?>
<svg width="20px" height="20px" viewBox="0 0 20 20" version="1.1" xmlns="http://www.w3.org/2000/svg" xmlns:xlink="http://www.w3.org/1999/xlink">
    <title>user list_left_ic_money</title>
    <g id="Page-1" stroke="none" stroke-width="1" fill="none" fill-rule="evenodd">
        <g id="用户列表" transform="translate(-20.000000, -977.000000)">
            <g id="6" transform="translate(0.000000, 952.000000)">
                <g id="user-list_left_ic_money" transform="translate(20.000000, 25.000000)">
                    <rect id="Rectangle-4" fill="#C84040" opacity="0" x="0" y="0" width="20" height="20"></rect>
                    <path d="M17.9381045,8.99998598 C17.9789561,9.32758472 18,9.66133482 18,10 C18,14.418278 14.418278,18 10,18 C5.581722,18 2,14.418278 2,10 C2,9.66133482 2.02104393,9.32758472 2.0618955,8.99998598 C2.55399981,12.9463188 5.92038718,16 10,16 C14.0014593,16 17.3167581,13.0621974 17.9066733,9.22581519 Z" id="形状结合" fill="#178AFF" opacity="0.200000003"></path>
                    <path d="M10,0 C15.5228475,0 20,4.4771525 20,10 C20,15.5228475 15.5228475,20 10,20 C4.4771525,20 0,15.5228475 0,10 C0,4.4771525 4.4771525,0 10,0 Z M10,2 C5.581722,2 2,5.581722 2,10 C2,14.418278 5.581722,18 10,18 C14.418278,18 18,14.418278 18,10 C18,5.581722 14.418278,2 10,2 Z" id="形状结合" fill="#1F2028"></path>
                    <path d="M12.3261129,5 L13.7403265,6.41421356 L11.522,8.631 L14.021449,8.63170625 L14.021449,10.6317063 L11,10.631 L11,11.221 L14,11.2217923 L14,13.2217923 L11,13.221 L11,15.2217923 L9,15.2217923 L9,13.221 L6,13.2217923 L6,11.2217923 L9,11.221 L9,10.631 L6.02144898,10.6317063 L6.02144898,8.63170625 L8.508,8.631 L6.29057903,6.41421356 L7.70479259,5 L10.015,7.31 L12.3261129,5 Z" id="形状结合" fill="#178AFF"></path>
                </g>
            </g>
        </g>
    </g>
</svg>