<?xml version="1.0" encoding="UTF-8"?>
<svg width="20px" height="20px" viewBox="0 0 20 20" version="1.1" xmlns="http://www.w3.org/2000/svg" xmlns:xlink="http://www.w3.org/1999/xlink">
    <title>user list_left_ic_power</title>
    <g id="Page-1" stroke="none" stroke-width="1" fill="none" fill-rule="evenodd">
        <g id="首页" transform="translate(-20.000000, -617.000000)">
            <g id="7" transform="translate(0.000000, 592.000000)">
                <g id="user-list_left_ic_power" transform="translate(20.000000, 25.000000)">
                    <rect id="Rectangle-4" fill="#C84040" opacity="0" x="0" y="0" width="20" height="20"></rect>
                    <path d="M11,9 L11.0010775,11.2681881 C11.5982846,11.6141507 12,12.2601625 12,13 C12,14.1045695 11.1045695,15 10,15 C8.8954305,15 8,14.1045695 8,13 C8,12.2597476 8.40216612,11.6134261 8.99992752,11.2676063 L9,9 L11,9 Z" id="形状结合" fill="#178AFF"></path>
                    <path d="M10,2 C7.790861,2 6,3.790861 6,6 L4,6 C4,2.6862915 6.6862915,0 10,0 C13.3137085,0 16,2.6862915 16,6 L19,6 L19,20 L1,20 L1,6 L14,6 C14,3.790861 12.209139,2 10,2 Z M17,8 L3,8 L3,18 L17,18 L17,8 Z" id="形状结合" fill="#1F2028"></path>
                    <rect id="矩形" fill="#C9E2FB" x="3" y="16" width="14" height="2"></rect>
                </g>
            </g>
        </g>
    </g>
</svg>